<svg width="110" height="110" viewBox="0 0 110 110" fill="none" xmlns="http://www.w3.org/2000/svg">
<path d="M23.5884 77.325H11.5884V29.85H34.2384C40.1884 29.85 44.5134 31.2 47.2134 33.9C49.9634 36.55 51.3384 40.475 51.3384 45.675C51.3384 49.575 50.3634 52.925 48.4134 55.725C46.4634 58.475 43.8884 60.2 40.6884 60.9L40.6134 61.125C41.8634 61.925 43.2384 63.25 44.7384 65.1C46.2384 66.95 47.7134 68.975 49.1634 71.175C50.6634 73.325 51.9884 75.35 53.1384 77.25V77.325H39.1884L31.0884 65.325C30.3884 64.275 29.8134 63.525 29.3634 63.075C28.9634 62.625 28.4634 62.35 27.8634 62.25C27.3134 62.15 26.4134 62.1 25.1634 62.1H23.5884V77.325ZM32.2884 39.6H23.5884V52.35H32.2884C34.7884 52.35 36.5134 51.85 37.4634 50.85C38.4634 49.85 38.9634 48.225 38.9634 45.975C38.9634 43.725 38.4634 42.1 37.4634 41.1C36.5134 40.1 34.7884 39.6 32.2884 39.6ZM71.9282 77.325H59.9282V29.85H71.9282V49.725C72.0282 49.725 72.1032 49.725 72.1532 49.725C72.6532 49.725 73.2282 49.325 73.8782 48.525C74.5782 47.725 75.2032 46.925 75.7532 46.125L85.8032 29.85H98.8532V30.075L90.3032 43.875C89.5532 45.125 88.7032 46.475 87.7532 47.925C86.8032 49.325 85.8532 50.575 84.9032 51.675C84.0032 52.725 83.2032 53.375 82.5032 53.625V53.85C83.2032 54.15 84.0032 54.8 84.9032 55.8C85.8532 56.75 86.8032 57.875 87.7532 59.175C88.7532 60.425 89.7032 61.675 90.6032 62.925L100.578 77.1V77.325H86.7782L77.4032 62.925V63C77.1032 62.5 76.6282 61.85 75.9782 61.05C75.3782 60.2 74.7282 59.425 74.0282 58.725C73.3782 58.025 72.8032 57.675 72.3032 57.675C72.2032 57.675 72.1282 57.675 72.0782 57.675C72.0282 57.675 71.9782 57.675 71.9282 57.675V77.325Z" fill="white"/>
</svg>
