<svg width="50" height="47" viewBox="0 0 50 47" fill="none" xmlns="http://www.w3.org/2000/svg">
<path d="M21.725 43.11C21.845 42.9 22.01 42.795 22.22 42.795C22.43 42.795 22.61 42.915 22.76 43.155C22.94 43.365 23.03 43.605 23.03 43.875C23.03 44.175 22.925 44.43 22.715 44.64C21.785 45.33 20.855 45.84 19.925 46.17C18.995 46.5 17.885 46.665 16.595 46.665C14.675 46.665 12.98 45.69 11.51 43.74C10.07 41.76 9.08 39.075 8.54 35.685C7.82 32.385 7.46 28.65 7.46 24.48C7.46 23.58 7.715 23.13 8.225 23.13C8.315 23.13 8.63 23.22 9.17 23.4C10.19 23.76 10.925 23.94 11.375 23.94C12.515 23.94 13.685 23.625 14.885 22.995C16.115 22.335 17.18 21.465 18.08 20.385C19.94 18.075 20.87 15.345 20.87 12.195C20.87 10.575 20.6 9.09 20.06 7.74C19.52 6.39 18.755 5.325 17.765 4.545C16.775 3.765 15.65 3.375 14.39 3.375C12.92 3.375 11.75 3.495 10.88 3.735L2.6 44.325C2.42 44.835 2 45.09 1.34 45.09C0.65 45.09 0.305 44.85 0.305 44.37C0.935 41.31 2.21 35.19 4.13 26.01C6.05 16.8 7.565 9.72 8.675 4.77C8.195 4.92 7.805 5.115 7.505 5.355C7.205 5.595 6.89 5.895 6.56 6.255C6.32 6.555 6.095 6.78 5.885 6.93C5.675 7.05 5.42 7.095 5.12 7.065C4.73 6.885 4.535 6.585 4.535 6.165C4.535 5.355 5 4.605 5.93 3.915C6.86 3.195 8.06 2.655 9.53 2.295C9.74 1.665 9.98 1.2 10.25 0.899999C10.52 0.569998 10.775 0.404997 11.015 0.404997C11.105 0.404997 11.195 0.464998 11.285 0.584998C11.375 0.704998 11.42 0.854998 11.42 1.035C11.42 1.305 11.345 1.59 11.195 1.89C11.855 1.8 12.53 1.755 13.22 1.755C16.13 1.755 18.44 2.685 20.15 4.545C21.86 6.375 22.715 9 22.715 12.42C22.715 15.03 22.19 17.37 21.14 19.44C20.12 21.51 18.62 23.13 16.64 24.3C14.66 25.47 12.335 26.055 9.665 26.055C9.665 29.535 9.95 32.685 10.52 35.505C11.12 38.325 11.99 40.56 13.13 42.21C14.27 43.83 15.62 44.64 17.18 44.64C18.11 44.64 18.89 44.52 19.52 44.28C20.15 44.01 20.885 43.62 21.725 43.11ZM22.3026 45.405C21.8526 45.405 21.5826 45.09 21.4926 44.46C22.7226 37.62 24.4026 29.565 26.5326 20.295C28.6326 11.265 30.0276 5.22 30.7176 2.16C30.8376 1.86 31.0176 1.605 31.2576 1.395C31.5276 1.185 31.7826 1.08 32.0226 1.08C32.5026 1.08 32.7426 1.35 32.7426 1.89C32.0226 5.97 31.2126 9.855 30.3126 13.545C29.7126 16.095 28.8426 19.92 27.7026 25.02L37.1526 14.445C40.9026 10.305 44.5776 6.105 48.1776 1.845C48.4776 1.605 48.7926 1.485 49.1226 1.485C49.6026 1.485 49.8426 1.74 49.8426 2.25C49.8426 2.58 49.7226 2.88 49.4826 3.15C47.4726 5.55 44.0676 9.465 39.2676 14.895C34.3476 20.445 31.3026 23.91 30.1326 25.29C30.4026 27.99 30.9726 30.525 31.8426 32.895C32.7126 35.265 33.7776 37.29 35.0376 38.97C36.2976 40.62 37.6176 41.805 38.9976 42.525C40.0476 43.125 41.1876 43.425 42.4176 43.425C44.1576 43.425 45.4776 42.765 46.3776 41.445C46.6776 41.205 46.9476 41.085 47.1876 41.085C47.7876 41.085 48.0876 41.355 48.0876 41.895C48.0876 42.225 47.8776 42.645 47.4576 43.155C47.0376 43.635 46.5126 44.085 45.8826 44.505C45.2826 44.895 44.7426 45.12 44.2626 45.18C43.4526 45.33 42.7326 45.405 42.1026 45.405C40.8426 45.405 39.6426 45.15 38.5026 44.64C37.3626 44.13 36.2526 43.305 35.1726 42.165C33.4926 40.485 32.0676 38.28 30.8976 35.55C29.7276 32.82 28.8726 29.955 28.3326 26.955C28.1826 27.105 27.8976 27.39 27.4776 27.81C27.0876 28.23 26.8176 28.56 26.6676 28.8C25.1076 35.76 24.0726 40.875 23.5626 44.145C23.5026 44.505 23.3376 44.805 23.0676 45.045C22.8276 45.285 22.5726 45.405 22.3026 45.405Z" fill="white"/>
</svg>
