<svg width="80" height="80" viewBox="0 0 80 80" fill="none" xmlns="http://www.w3.org/2000/svg">
<path d="M40.0173 70.4501C46.396 70.4461 48.2955 67.7724 52.494 65.9106C56.2435 64.2479 61.6097 66.7584 62.7228 62.3079C62.867 60.0078 66.9112 60.3781 69.1798 58.8086C71.2495 57.3768 71.4563 55.0818 69.3302 54.1786C64.5173 52.1338 59.4582 47.6546 58.2338 42.8513C57.4702 39.8549 67.0318 38.9336 65.0407 33.2843C63.8658 29.9508 59.6442 31.1246 57.3473 31.8713C58.8777 20.0236 53.1107 9.55078 39.9977 9.55078C26.8847 9.55078 21.1177 20.0236 22.648 31.8713C20.3513 31.1246 16.1297 29.9508 14.9547 33.2843C12.9635 38.9336 22.5253 39.8549 21.7615 42.8513C20.5372 47.6546 15.4782 52.1338 10.6652 54.1786C8.53901 55.0819 8.74585 57.3768 10.8155 58.8086C13.0842 60.3781 17.1285 60.0078 17.2725 62.3079C18.3857 66.7584 23.7518 64.2479 27.5013 65.9106C31.6998 67.7724 33.5993 70.4461 39.978 70.4501C39.9877 70.4501 40.0077 70.4501 40.0173 70.4501Z" stroke="black" stroke-width="1.66667" stroke-linecap="round" stroke-linejoin="round"/>
</svg>
