<svg width="66" height="56" viewBox="0 0 66 56" fill="none" xmlns="http://www.w3.org/2000/svg">
<rect width="66" height="56" fill="#3C3C3C"/>
<path d="M12.7256 42.55H4.72559V10.9H19.8256C23.7923 10.9 26.6756 11.8 28.4756 13.6C30.3089 15.3667 31.2256 17.9833 31.2256 21.45C31.2256 24.05 30.5756 26.2833 29.2756 28.15C27.9756 29.9833 26.2589 31.1333 24.1256 31.6L24.0756 31.75C24.9089 32.2833 25.8256 33.1667 26.8256 34.4C27.8256 35.6333 28.8089 36.9833 29.7756 38.45C30.7756 39.8833 31.6589 41.2333 32.4256 42.5V42.55H23.1256L17.7256 34.55C17.2589 33.85 16.8756 33.35 16.5756 33.05C16.3089 32.75 15.9756 32.5667 15.5756 32.5C15.2089 32.4333 14.6089 32.4 13.7756 32.4H12.7256V42.55ZM18.5256 17.4H12.7256V25.9H18.5256C20.1923 25.9 21.3423 25.5667 21.9756 24.9C22.6423 24.2333 22.9756 23.15 22.9756 21.65C22.9756 20.15 22.6423 19.0667 21.9756 18.4C21.3423 17.7333 20.1923 17.4 18.5256 17.4ZM44.9521 42.55H36.9521V10.9H44.9521V24.15C45.0188 24.15 45.0688 24.15 45.1021 24.15C45.4355 24.15 45.8188 23.8833 46.2521 23.35C46.7188 22.8167 47.1355 22.2833 47.5021 21.75L54.2021 10.9H62.9022V11.05L57.2022 20.25C56.7021 21.0833 56.1355 21.9833 55.5021 22.95C54.8688 23.8833 54.2355 24.7167 53.6021 25.45C53.0021 26.15 52.4688 26.5833 52.0021 26.75V26.9C52.4688 27.1 53.0021 27.5333 53.6021 28.2C54.2355 28.8333 54.8688 29.5833 55.5021 30.45C56.1688 31.2833 56.8021 32.1167 57.4021 32.95L64.0522 42.4V42.55H54.8521L48.6021 32.95V33C48.4021 32.6667 48.0855 32.2333 47.6521 31.7C47.2521 31.1333 46.8188 30.6167 46.3521 30.15C45.9188 29.6833 45.5355 29.45 45.2021 29.45C45.1355 29.45 45.0855 29.45 45.0521 29.45C45.0188 29.45 44.9855 29.45 44.9521 29.45V42.55Z" fill="black"/>
</svg>
