<svg width="72" height="56" viewBox="0 0 72 56" fill="none" xmlns="http://www.w3.org/2000/svg">
<rect width="72" height="56" fill="#3C3C3C"/>
<path d="M32.725 48.11C32.845 47.9 33.01 47.795 33.22 47.795C33.43 47.795 33.61 47.915 33.76 48.155C33.94 48.365 34.03 48.605 34.03 48.875C34.03 49.175 33.925 49.43 33.715 49.64C32.785 50.33 31.855 50.84 30.925 51.17C29.995 51.5 28.885 51.665 27.595 51.665C25.675 51.665 23.98 50.69 22.51 48.74C21.07 46.76 20.08 44.075 19.54 40.685C18.82 37.385 18.46 33.65 18.46 29.48C18.46 28.58 18.715 28.13 19.225 28.13C19.315 28.13 19.63 28.22 20.17 28.4C21.19 28.76 21.925 28.94 22.375 28.94C23.515 28.94 24.685 28.625 25.885 27.995C27.115 27.335 28.18 26.465 29.08 25.385C30.94 23.075 31.87 20.345 31.87 17.195C31.87 15.575 31.6 14.09 31.06 12.74C30.52 11.39 29.755 10.325 28.765 9.545C27.775 8.765 26.65 8.375 25.39 8.375C23.92 8.375 22.75 8.495 21.88 8.735L13.6 49.325C13.42 49.835 13 50.09 12.34 50.09C11.65 50.09 11.305 49.85 11.305 49.37C11.935 46.31 13.21 40.19 15.13 31.01C17.05 21.8 18.565 14.72 19.675 9.77C19.195 9.92 18.805 10.115 18.505 10.355C18.205 10.595 17.89 10.895 17.56 11.255C17.32 11.555 17.095 11.78 16.885 11.93C16.675 12.05 16.42 12.095 16.12 12.065C15.73 11.885 15.535 11.585 15.535 11.165C15.535 10.355 16 9.605 16.93 8.915C17.86 8.195 19.06 7.655 20.53 7.295C20.74 6.665 20.98 6.2 21.25 5.9C21.52 5.57 21.775 5.405 22.015 5.405C22.105 5.405 22.195 5.465 22.285 5.585C22.375 5.705 22.42 5.855 22.42 6.035C22.42 6.305 22.345 6.59 22.195 6.89C22.855 6.8 23.53 6.755 24.22 6.755C27.13 6.755 29.44 7.685 31.15 9.545C32.86 11.375 33.715 14 33.715 17.42C33.715 20.03 33.19 22.37 32.14 24.44C31.12 26.51 29.62 28.13 27.64 29.3C25.66 30.47 23.335 31.055 20.665 31.055C20.665 34.535 20.95 37.685 21.52 40.505C22.12 43.325 22.99 45.56 24.13 47.21C25.27 48.83 26.62 49.64 28.18 49.64C29.11 49.64 29.89 49.52 30.52 49.28C31.15 49.01 31.885 48.62 32.725 48.11ZM33.3026 50.405C32.8526 50.405 32.5826 50.09 32.4926 49.46C33.7226 42.62 35.4026 34.565 37.5326 25.295C39.6326 16.265 41.0276 10.22 41.7176 7.16C41.8376 6.86 42.0176 6.605 42.2576 6.395C42.5276 6.185 42.7826 6.08 43.0226 6.08C43.5026 6.08 43.7426 6.35 43.7426 6.89C43.0226 10.97 42.2126 14.855 41.3126 18.545C40.7126 21.095 39.8426 24.92 38.7026 30.02L48.1526 19.445C51.9026 15.305 55.5776 11.105 59.1776 6.845C59.4776 6.605 59.7926 6.485 60.1226 6.485C60.6026 6.485 60.8426 6.74 60.8426 7.25C60.8426 7.58 60.7226 7.88 60.4826 8.15C58.4726 10.55 55.0676 14.465 50.2676 19.895C45.3476 25.445 42.3026 28.91 41.1326 30.29C41.4026 32.99 41.9726 35.525 42.8426 37.895C43.7126 40.265 44.7776 42.29 46.0376 43.97C47.2976 45.62 48.6176 46.805 49.9976 47.525C51.0476 48.125 52.1876 48.425 53.4176 48.425C55.1576 48.425 56.4776 47.765 57.3776 46.445C57.6776 46.205 57.9476 46.085 58.1876 46.085C58.7876 46.085 59.0876 46.355 59.0876 46.895C59.0876 47.225 58.8776 47.645 58.4576 48.155C58.0376 48.635 57.5126 49.085 56.8826 49.505C56.2826 49.895 55.7426 50.12 55.2626 50.18C54.4526 50.33 53.7326 50.405 53.1026 50.405C51.8426 50.405 50.6426 50.15 49.5026 49.64C48.3626 49.13 47.2526 48.305 46.1726 47.165C44.4926 45.485 43.0676 43.28 41.8976 40.55C40.7276 37.82 39.8726 34.955 39.3326 31.955C39.1826 32.105 38.8976 32.39 38.4776 32.81C38.0876 33.23 37.8176 33.56 37.6676 33.8C36.1076 40.76 35.0726 45.875 34.5626 49.145C34.5026 49.505 34.3376 49.805 34.0676 50.045C33.8276 50.285 33.5726 50.405 33.3026 50.405Z" fill="black"/>
</svg>
